<svg width="29" height="31" viewBox="0 0 29 31" fill="none" xmlns="http://www.w3.org/2000/svg">
<path d="M22.5 18.5C23.3284 18.5 24 19.1716 24 20V21.5C24 22.3284 23.3284 23 22.5 23H1.5C0.671573 23 2.41598e-08 22.3284 0 21.5V20C0 19.1716 0.671573 18.5 1.5 18.5H4.5L5.55566 9.00293C5.80895 6.72419 7.73459 5.00017 10.0273 5H13.9727C16.2654 5.00017 18.1911 6.72419 18.4443 9.00293L19.5 18.5H22.5Z" fill="#28BF6C"/>
<rect opacity="0.3" x="9" y="24.5" width="6" height="6" rx="2.25" fill="#FF0000"/>
<path fill-rule="evenodd" clip-rule="evenodd" d="M21 16C25.4183 16 29 12.4183 29 8C29 3.58172 25.4183 0 21 0C16.5817 0 13 3.58172 13 8C13 12.4183 16.5817 16 21 16Z" fill="#F93C65"/>
</svg>
