<svg width="27" height="24" viewBox="0 0 27 24" fill="none" xmlns="http://www.w3.org/2000/svg">
<path d="M8.69531 13C11.2279 13 16.3047 14.17 16.3047 16.5V18C16.3047 18.5499 15.8154 18.9998 15.2178 19H2.17383C1.57602 19 1.08691 18.55 1.08691 18V16.5C1.08691 14.1701 6.1626 13.0001 8.69531 13ZM17.3916 13C19.9243 13.0001 25 14.1701 25 16.5V18C25 18.55 24.5109 19 23.9131 19H18.2822C18.4018 18.69 18.4785 18.35 18.4785 18V16.5C18.4785 15.0301 17.6199 13.9198 16.3809 13.0898C16.37 13.0798 16.3587 13.0598 16.3369 13.0498C16.7173 13.0198 17.0764 13 17.3916 13ZM8.69531 5C10.4997 5 11.9453 6.34 11.9453 8C11.9453 9.66 10.4997 11 8.69531 11C6.8911 10.9999 5.43457 9.65991 5.43457 8C5.43457 6.34009 6.8911 5.00015 8.69531 5ZM17.3916 5C19.1958 5.00017 20.6416 6.3401 20.6416 8C20.6416 9.6599 19.1958 10.9998 17.3916 11C15.5873 11 14.1309 9.66 14.1309 8C14.1309 6.34 15.5873 5 17.3916 5Z" fill="#28BF6C"/>
</svg>
