<svg width="22" height="12" viewBox="0 0 22 12" fill="none" xmlns="http://www.w3.org/2000/svg">
<path d="M15.666 0.85L17.2062 2.29L11.9867 7.17L8.46782 3.88C8.05069 3.49 7.37686 3.49 6.95973 3.88L0.54234 9.89C0.12521 10.28 0.12521 10.91 0.54234 11.3C0.95947 11.69 1.6333 11.69 2.05043 11.3L7.70843 6L11.2273 9.29C11.6444 9.68 12.3183 9.68 12.7354 9.29L18.7143 3.71L20.2544 5.15C20.586 5.46 21.1636 5.24 21.1636 4.8V0.5C21.1743 0.22 20.9389 0 20.6395 0H16.051C15.5697 0 15.3344 0.54 15.666 0.85Z" fill="#4D4D4D"/>
</svg>
