<svg width="22" height="18" viewBox="0 0 22 18" fill="none" xmlns="http://www.w3.org/2000/svg">
<path fill-rule="evenodd" clip-rule="evenodd" d="M19.739 0H2.34774C1.15209 0 0.173828 0.9 0.173828 2V16C0.173828 17.1 1.15209 18 2.34774 18H19.739C20.9347 18 21.913 17.1 21.913 16V2C21.913 0.9 20.9347 0 19.739 0ZM7.78252 14H4.52165C3.92383 14 3.4347 13.55 3.4347 13C3.4347 12.45 3.92383 12 4.52165 12H7.78252C8.38035 12 8.86948 12.45 8.86948 13C8.86948 13.55 8.38035 14 7.78252 14ZM7.78252 10H4.52165C3.92383 10 3.4347 9.55 3.4347 9C3.4347 8.45 3.92383 8 4.52165 8H7.78252C8.38035 8 8.86948 8.45 8.86948 9C8.86948 9.55 8.38035 10 7.78252 10ZM7.78252 6H4.52165C3.92383 6 3.4347 5.55 3.4347 5C3.4347 4.45 3.92383 4 4.52165 4H7.78252C8.38035 4 8.86948 4.45 8.86948 5C8.86948 5.55 8.38035 6 7.78252 6ZM18.326 8.12L14.8804 11.29C14.4564 11.68 13.7608 11.68 13.3369 11.29L11.8043 9.87C11.3804 9.48 11.3804 8.85 11.8043 8.46C12.2282 8.07 12.913 8.07 13.3369 8.46L14.1086 9.17L16.7934 6.7C17.2173 6.31 17.9021 6.31 18.326 6.7L18.3369 6.71C18.7499 7.1 18.7499 7.74 18.326 8.12Z" fill="black" fill-opacity="0.7"/>
</svg>
